<svg data-logo="logo" xmlns="http://www.w3.org/2000/svg" viewBox="0 0 21 29">
        <g style="opacity: 1;" id="logogram" transform="translate(0, 14.5) rotate(0)"></g>
        <g style="opacity: 1;" id="logotype" transform="translate(0, 1)"><path fill="#ffffff" d="M8.37 26L3.75 26L3.75 12.21L0.84 12.21L0.84 8.50L3.75 8.50L3.75 6.75Q3.75 3.95 5.18 2.39Q6.62 0.83 9.56 0.83L9.56 0.83Q10.57 0.83 11.71 1.18Q12.85 1.53 13.79 2.02L13.79 2.02L12.08 5.35Q11.52 5.07 11.06 4.93Q10.61 4.79 10.22 4.79L10.22 4.79Q9.28 4.79 8.82 5.44Q8.37 6.08 8.37 7.52L8.37 7.52L8.37 8.50L12.67 8.50L12.67 12.21L8.37 12.21L8.37 26ZM17.22 26.52L17.22 26.52Q16.07 26.52 15.24 25.68Q14.42 24.84 14.42 23.69L14.42 23.69Q14.42 22.57 15.24 21.73Q16.07 20.89 17.22 20.89L17.22 20.89Q18.38 20.89 19.20 21.73Q20.02 22.57 20.02 23.69L20.02 23.69Q20.02 24.84 19.20 25.68Q18.38 26.52 17.22 26.52Z"></path></g>
        
      </svg>