
      <svg data-logo="logo" xmlns="http://www.w3.org/2000/svg" viewBox="0 0 87 29">
        <g id="logogram" transform="translate(0, 14.5) rotate(0) "></g>
        <g id="logotype" transform="translate(0, 1)"><path fill="#111111" d="M8.37 26L3.75 26L3.75 12.21L0.84 12.21L0.84 8.50L3.75 8.50L3.75 6.75Q3.75 3.95 5.18 2.39Q6.62 0.83 9.56 0.83L9.56 0.83Q10.57 0.83 11.71 1.18Q12.85 1.53 13.79 2.02L13.79 2.02L12.08 5.35Q11.52 5.07 11.06 4.93Q10.61 4.79 10.22 4.79L10.22 4.79Q9.28 4.79 8.82 5.44Q8.37 6.08 8.37 7.52L8.37 7.52L8.37 8.50L12.67 8.50L12.67 12.21L8.37 12.21L8.37 26ZM22.68 26.42L22.68 26.42Q20.02 26.42 17.94 25.25Q15.86 24.07 14.68 22.01Q13.51 19.95 13.51 17.25L13.51 17.25Q13.51 14.55 14.67 12.49Q15.82 10.42 17.89 9.25Q19.95 8.08 22.61 8.08L22.61 8.08Q25.30 8.08 27.37 9.25Q29.44 10.42 30.59 12.49Q31.75 14.55 31.75 17.25L31.75 17.25Q31.75 19.95 30.59 22.01Q29.44 24.07 27.39 25.25Q25.34 26.42 22.68 26.42ZM22.68 22.15L22.68 22.15Q23.98 22.15 24.96 21.52Q25.94 20.89 26.48 19.79Q27.02 18.68 27.02 17.25L27.02 17.25Q27.02 15.81 26.46 14.71Q25.90 13.61 24.90 12.98Q23.91 12.35 22.61 12.35L22.61 12.35Q21.35 12.35 20.35 12.98Q19.36 13.61 18.80 14.71Q18.23 15.81 18.23 17.25L18.23 17.25Q18.23 18.68 18.80 19.79Q19.36 20.89 20.37 21.52Q21.39 22.15 22.68 22.15ZM40.46 26.42L40.46 26.42Q38.78 26.42 37.31 25.91Q35.84 25.41 34.72 24.44Q33.60 23.48 32.97 22.08L32.97 22.08L36.93 20.26Q37.45 21.10 38.36 21.71Q39.27 22.32 40.46 22.32L40.46 22.32Q41.62 22.32 42.25 21.99Q42.88 21.66 42.88 21.03L42.88 21.03Q42.88 20.40 42.37 20.10Q41.86 19.80 40.98 19.59L40.98 19.59L39.38 19.17Q36.86 18.51 35.40 17.06Q33.95 15.60 33.95 13.71L33.95 13.71Q33.95 11.02 35.68 9.55Q37.41 8.08 40.60 8.08L40.60 8.08Q42.25 8.08 43.66 8.57Q45.08 9.06 46.09 9.93Q47.11 10.81 47.50 11.96L47.50 11.96L43.68 13.71Q43.44 13.01 42.49 12.58Q41.55 12.14 40.60 12.14L40.60 12.14Q39.66 12.14 39.15 12.54Q38.64 12.94 38.64 13.64L38.64 13.64Q38.64 14.10 39.13 14.40Q39.62 14.69 40.53 14.90L40.53 14.90L42.81 15.46Q44.52 15.88 45.55 16.81Q46.59 17.74 47.06 18.88Q47.53 20.02 47.53 21.10L47.53 21.10Q47.53 22.68 46.60 23.88Q45.68 25.09 44.08 25.75Q42.49 26.42 40.46 26.42ZM55.86 26.42L55.86 26.42Q54.18 26.42 52.71 25.91Q51.24 25.41 50.12 24.44Q49.00 23.48 48.37 22.08L48.37 22.08L52.33 20.26Q52.85 21.10 53.76 21.71Q54.67 22.32 55.86 22.32L55.86 22.32Q57.02 22.32 57.65 21.99Q58.28 21.66 58.28 21.03L58.28 21.03Q58.28 20.40 57.77 20.10Q57.26 19.80 56.39 19.59L56.39 19.59L54.78 19.17Q52.26 18.51 50.80 17.06Q49.35 15.60 49.35 13.71L49.35 13.71Q49.35 11.02 51.08 9.55Q52.82 8.08 56.00 8.08L56.00 8.08Q57.65 8.08 59.06 8.57Q60.48 9.06 61.50 9.93Q62.51 10.81 62.90 11.96L62.90 11.96L59.08 13.71Q58.84 13.01 57.89 12.58Q56.95 12.14 56.00 12.14L56.00 12.14Q55.06 12.14 54.55 12.54Q54.04 12.94 54.04 13.64L54.04 13.64Q54.04 14.10 54.53 14.40Q55.02 14.69 55.93 14.90L55.93 14.90L58.21 15.46Q59.92 15.88 60.95 16.81Q61.99 17.74 62.46 18.88Q62.93 20.02 62.93 21.10L62.93 21.10Q62.93 22.68 62.00 23.88Q61.08 25.09 59.48 25.75Q57.89 26.42 55.86 26.42ZM69.65 26L65.03 26L65.03 8.50L69.65 8.50L69.65 26ZM67.34 5.66L67.34 5.66Q66.29 5.66 65.49 4.88Q64.68 4.09 64.68 3.00L64.68 3.00Q64.68 1.92 65.49 1.13Q66.29 0.34 67.34 0.34L67.34 0.34Q68.43 0.34 69.21 1.13Q70.00 1.92 70.00 3.00L70.00 3.00Q70.00 4.09 69.21 4.88Q68.43 5.66 67.34 5.66ZM77.67 26L73.05 26L73.05 1.50L77.67 1.50L77.67 26ZM83.13 26.52L83.13 26.52Q81.97 26.52 81.15 25.68Q80.33 24.84 80.33 23.69L80.33 23.69Q80.33 22.57 81.15 21.73Q81.97 20.89 83.13 20.89L83.13 20.89Q84.28 20.89 85.10 21.73Q85.93 22.57 85.93 23.69L85.93 23.69Q85.93 24.84 85.10 25.68Q84.28 26.52 83.13 26.52Z"/></g>
        
      </svg>
    